<?xml version="1.0" standalone="no"?>
<!DOCTYPE svg PUBLIC "-//W3C//DTD SVG 1.1//EN" "http://www.w3.org/Graphics/SVG/1.1/DTD/svg11.dtd">
<svg xmlns="http://www.w3.org/2000/svg" id="Layer_2" data-name="Layer 2" viewBox="0 0 109.1 61.01" width="109.0999984741211" height="61.0099983215332">
  <g id="Layer_1-2" data-name="Layer 1">
    <g>
      <path d="M6.66,1.43c4.62-.44,7.85-.5,9.69-.19,1.84.31,3,1.16,3.5,2.55.5,1.39.51,3.37.04,5.92-.47,2.56-2.19,4.2-5.17,4.94l-4.51,1.04-1.63.18-.98,15.28c-1.9.67-3.42.52-4.55-.45L5.17,2.38l1.49-.95ZM9.59,5.33l-.64,6.35c3.83-.26,5.99-1.04,6.47-2.34.48-1.3.51-2.4.09-3.29-.42-.9-2.39-1.13-5.92-.72Z"/>
      <path d="M36.77,3.65l5.63,29.64c-1.13.97-3.28,1.08-5.19.41l-3.29-17.08-2.23-.23-17.04,13.46c-2.13.65-3.66.06-4.57-1.77l17.09-12.74c-2.98-.74-4.7-2.29-5.15-4.65-.45-2.36-.43-4.23.06-5.62.5-1.39,1.66-2.24,3.5-2.55,1.84-.31,5.07-.25,9.69.19l1.49.95ZM26.43,7.32c-.42.9-.39,1.89.07,2.99.46,1.1,2.61,1.78,6.45,2.04l-.6-5.75c-3.53-.42-5.5-.18-5.92.72Z"/>
      <path d="M50.21.15c2.39,0,4.3.82,5.71,2.46,1.41,1.64,1.99,3.72,1.72,6.23-.26,2.51-1.22,4.58-2.87,6.22-1.65,1.63-3.69,2.45-6.11,2.45s-4.39-.79-5.93-2.38c-1.54-1.59-2.18-3.63-1.93-6.12.25-2.49,1.28-4.59,3.1-6.29,1.81-1.7,3.91-2.55,6.31-2.55ZM49.85,4.46c-1.15-.01-2.18.39-3.1,1.21-.92.82-1.47,1.91-1.67,3.27-.19,1.36.13,2.49.97,3.38.84.89,1.85,1.31,3.03,1.26s2.18-.5,2.98-1.35c.8-.85,1.27-1.91,1.4-3.19.14-1.28-.15-2.36-.84-3.24s-1.62-1.33-2.77-1.34Z"/>
      <path d="M63.75.26l.08,3.97c-.35,12.82-3.44,15.24-4.57,16.51-2.57,2.88-6.48,3.34-12.18,2.78-2.29-.22-4.12-.46-5.17-2.36-.32-1.61-.03-2.69.87-3.22,10.08,4.34,17.52,2.33,16.87-17.52,1.29-.51,2.66-.56,4.09-.17Z"/>
      <path d="M80.95.86c.46,1.84.38,3.57-.24,5.17l-9.1.37-.25,4.51,7.48-.19c.7,1.71.64,3.33-.17,4.86l-7.62.4-.38,5.46,9.34-.35c.77,2.08.66,4.02-.32,5.84l-13.02.65c-.4-.09-.65-.46-.74-1.11l1.25-24.13c.1-.46.32-.79.65-.99l13.1-.49Z"/>
      <path d="M96.27,10.19c.31,1.59-.11,2.87-1.25,3.83-.77-.5-1.98-.89-3.63-1.18-1.44-.14-2.62.28-3.53,1.26s-1.47,2.25-1.67,3.81c-.3.98-.12,2.25.56,3.79.67,1.4,1.7,2.14,3.08,2.22,1.38.08,3.03-.19,4.95-.81.69,1.36.76,2.7.2,4.01-2.28,1.05-4.12,1.54-5.54,1.49-2.61-.33-4.52-1.28-5.71-2.84-1.59-2.1-2.14-5.06-1.62-8.89.41-3.03,1.37-5.32,2.88-6.87,1.98-1.6,4.37-2.26,7.19-1.97,1.96.12,3.33.85,4.11,2.17Z"/>
      <path d="M108.65,1.88c.64,1.48.6,2.97-.11,4.47l-5.14.07-.75,20.72c-1.41.6-2.96.59-4.64-.03l.9-20.51-14.48.11c-1.03-1.74-1.07-3.21-.13-4.43l24.34-.4Z"/>
      <path d="M.36,57.83c-.76-2.28-.32-4.04,1.34-5.3,3.01,1.51,5.2,2.45,6.56,2.8,2.53-.02,3.92-.56,4.17-1.63.06-.85-.72-1.68-2.32-2.47l-4.52-1.88c-2.83-1.28-4.29-3.09-4.4-5.43.11-1.34.65-2.55,1.63-3.63s2.08-1.78,3.31-2.11c1.23-.34,2.68-.46,4.37-.37,3.1.16,5.81.91,8.14,2.26.09,1.9-.6,3.55-2.08,4.95-2.85-1.83-5.13-2.68-6.84-2.56-1.61-.16-2.46.33-2.55,1.48-.06.65,1.07,1.5,3.4,2.53,2.66.92,4.63,1.98,5.92,3.18s1.86,2.64,1.71,4.35c-.19,2.31-1.44,4.08-3.76,5.31-1.48.88-3.61,1.25-6.4,1.1-2.66-.29-5.22-1.15-7.67-2.57Z"/>
      <path d="M34.19,30.8c.81,1.88.76,3.76-.14,5.65l-6.49.09-.95,23.27c-1.78.76-3.73.75-5.86-.04l1.14-23.01-3.38.14c-1.3-2.19-1.35-4.06-.16-5.59l15.84-.51Z"/>
      <path d="M31.54,38.02c2.11-.34,4.12-.31,6.03.07-.72,7.67-1.05,13.43-.99,14.67s.37,2.19.94,2.84c.57.65,1.56.98,2.95.98s2.35-.35,2.87-1.06c.52-.71.85-1.63.99-2.78s.38-2.16.72-9.95c1.71-.36,3.66-.37,5.84-.03-.56,10.33-1.19,12.69-1.88,13.97-.69,1.28-1.75,2.31-3.17,3.1-1.42.79-3.28,1.18-5.58,1.18s-4.31-.48-6.04-1.43c-1.73-.95-2.84-2.33-3.34-4.14s-.28-8.48.66-17.43Z"/>
      <path d="M77.99,41.88c1.78-.29,3.71-.23,5.77.18l-2.08,17.55c-2.39.46-4.42.4-6.07-.18l2.38-17.55Z"/>
      <path d="M97.6,32.29c3.02,0,5.42,1.35,7.19,4.06s2.5,6.13,2.17,10.28c-.33,4.15-1.54,7.57-3.62,10.26-2.08,2.69-4.65,4.04-7.69,4.04s-5.54-1.31-7.47-3.94c-1.94-2.62-2.75-5.99-2.43-10.11.32-4.12,1.62-7.58,3.9-10.38,2.28-2.81,4.93-4.21,7.95-4.21ZM97.14,39.4c-1.45-.02-2.75.65-3.91,2-1.16,1.35-1.86,3.15-2.1,5.4-.24,2.25.16,4.11,1.22,5.58,1.05,1.47,2.33,2.17,3.82,2.09s2.74-.82,3.75-2.23c1.01-1.4,1.6-3.16,1.77-5.27.17-2.11-.18-3.89-1.06-5.35-.88-1.46-2.04-2.2-3.49-2.22Z"/>
      <path d="M85.51,35.16c-.11,1.23-.52,2.24-1.23,3.04-.71.8-1.58,1.2-2.62,1.2s-1.88-.39-2.54-1.17c-.66-.78-.94-1.78-.83-3,.11-1.22.55-2.25,1.33-3.08.78-.83,1.68-1.25,2.71-1.25s1.84.4,2.45,1.2c.61.8.85,1.82.74,3.05Z"/>
      <path d="M74.05,30.3c-1.7-.61-3.78-.6-5.75-.43l-1.34,12.06-2.79-.47c-6.74-.43-9.97,3.09-10.81,7.79-.3,2.42.16,4.6,1.38,6.54,1.47,2.34,4.19,3.17,6.68,3.67,2.22.44,4.5.83,7.06.74.6-.02,2.48.25,2.79-.21.06-.09.03-.38.05-.49.14-1.38.26-2.76.39-4.14l1.27-13.66.99-10.63s.1-.76.07-.77ZM59.99,55.27c-1.07-1.06-1.52-2.49-1.35-4.29.16-1.8.93-3.63,1.95-4.37,1.01-.74,3.34-1.4,6.9-.77l-.32,2.78-.99,8.25c-3.01-.43-5.12-.53-6.19-1.6Z"/>
      <path d="M60.72,25.77h-13.37c-1.29,0-2.33,1.04-2.33,2.33v9.63c0,1.28,1.04,2.32,2.33,2.32h13.37c1.28,0,2.32-1.04,2.32-2.32v-9.63c0-1.29-1.04-2.33-2.32-2.33ZM52.97,28.01c-.01.37-.03.74-.03,1.1,0,.22-.01.44-.01.64.01,0,0,.14,0,.14v1.87c-.13.6,0,1.21-.03,1.81-.02.33-.05.67-.05.99,0,.26-.02.51.03.75.02.05.02.07.02.11-.07.37-.02.82-.04,1.19,0,.34,0,.68.05,1.03.02.21,0,.43,0,.65,0,.05-.06.09-.14.1-.29.02-.59.04-.88.06-.28,0-.57-.02-.85-.02-.05,0-.08,0-.12-.01-.1,0-.14-.05-.14-.13v-.62c0-.38,0-.76,0-1.14v-.18c.08-.33.05-.74.05-1.06s.01-.66.01-.97c.02-.15,0-.31,0-.46.02-.2,0-.39.05-.58.03-.08,0-.16,0-.24,0-.48.02-.96,0-1.43-.01-.44-.06-.87-.06-1.31,0-.1-.06-.14-.16-.12-.34.04-.68.04-1.02.02-.12,0-.18-.06-.2-.17v-.1c0-.22.02-.43-.03-.64-.01-.07,0-.12,0-.18,0-.24.02-.31.31-.3.36.02.7-.06,1.02-.2.26-.11.47-.26.59-.5.06-.13.14-.24.18-.36.04-.09.1-.13.19-.16.14-.06.29-.04.45-.04.2,0,.42.05.63.01.1-.01.16.06.17.14v.31ZM57.44,28.13c-.02.38-.03.77-.03,1.15v.57c0,.65,0,1.31-.02,1.96v.03c.05.37-.01.78-.03,1.13,0,.36,0,.65,0,.99v.69c0,.26-.07.49-.02.75.02.04.02.08.02.1-.05.26,0,.52,0,.78,0,.48,0,.96.06,1.43,0,.18,0,.36,0,.53,0,.1-.06.14-.16.15-.27.02-.55.04-.83.06-.28,0-.57-.02-.85-.02h-.08c-.18-.01-.23-.05-.23-.19.02-.28.02-.57.02-.85v-.75c0-.1,0-.19,0-.29.05-.27.02-.55.02-.82-.02-.39,0-.8,0-1.21.01-.11,0-.23,0-.36.01-.19,0-.38.04-.55.02-.11.03-.22.03-.33,0-.44.02-.87,0-1.32-.01-.47-.07-.93-.07-1.39,0-.08-.07-.12-.16-.11-.34.04-.68.05-1.02.04-.12-.01-.18-.08-.2-.19v-.1c.02-.21.02-.43-.03-.64-.02-.09,0-.19,0-.28,0-.14.05-.18.2-.19h.23c.37,0,.7-.11,1.01-.26.2-.1.37-.23.46-.43.06-.12.16-.23.19-.35.03-.14.12-.19.24-.2.13-.02.24-.03.36-.03.23,0,.46.05.69.01.08-.01.14.06.16.14v.35Z"/>
    </g>
  </g>
</svg>